<svg width="333" height="299" viewBox="0 0 333 299" fill="none" xmlns="http://www.w3.org/2000/svg">
<path d="M225.5 90C204.841 70.3603 197.104 32.6205 194.214 8.27505C193.321 0.758624 182.881 -2.63298 177.941 3.10252C164.252 18.998 142.426 42.7521 119.109 61.839C111.913 67.73 103.302 71.6518 94.1101 73.0659C63.4795 77.7781 32.1625 76.4651 10.3558 74.3633C2.26068 73.5831 -3.20888 84.8452 2.50511 90.6322C23.493 111.888 53.3482 145.609 58.3684 169.914C58.3684 198.191 41.7057 233.072 28.6887 256.007C24.6849 263.061 32.5266 272.277 40.0163 269.163C59.5576 261.036 87.8716 249.707 117.941 239.158C129.404 235.137 142.093 236.312 152.256 242.967C176.53 258.863 201.623 279.417 220.934 296.278C227.699 302.183 241.073 292.972 238.459 284.381C229.741 255.738 223.379 219.322 236.947 196.429C248.514 176.912 293.289 157.986 326.876 146.074C335.162 143.136 334.027 128.755 325.392 127.1C291.327 120.569 245.178 108.707 225.5 90Z" fill="white"/>
</svg>
